<?xml version="1.0" encoding="utf-8"?>
<!-- Generator: Adobe Illustrator 19.2.1, SVG Export Plug-In . SVG Version: 6.00 Build 0)  -->
<svg version="1.1" id="Capa_1" xmlns="http://www.w3.org/2000/svg" xmlns:xlink="http://www.w3.org/1999/xlink" x="0px" y="0px"
	 viewBox="0 0 612.1 612.1" style="enable-background:new 0 0 612.1 612.1;" xml:space="preserve">
<style type="text/css">
	.st0{fill:#FFFFFF;}
</style>
<g>
	<g>
		<g>
			<path class="st0" d="M345.9,207.2c0-38.3-15.5-73-40.6-98l0,0l0,0c-25.1-25.1-59.8-40.6-98-40.6c-38.3,0-73,15.5-98.1,40.6
				c-25.1,25.1-40.6,59.8-40.6,98.1c0,38.3,15.5,73,40.6,98c25.1,25.1,59.8,40.6,98.1,40.6c38.3,0,73-15.5,98-40.6l0.5-0.4
				C330.6,279.8,345.9,245.3,345.9,207.2L345.9,207.2z M318.8,95.7c28.6,28.6,46.2,68,46.2,111.6c0,43.3-17.5,82.5-45.7,111
				l-0.5,0.6c-28.5,28.5-68,46.2-111.6,46.2c-43.6,0-83-17.7-111.6-46.2c-28.5-28.5-46.2-68-46.2-111.6c0-43.6,17.7-83,46.2-111.5
				l0.1,0c28.5-28.5,68-46.2,111.5-46.2C250.8,49.4,290.3,67.1,318.8,95.7L318.8,95.7z"/>
			<path class="st0" d="M385.7,312.5c-2.7,4.5-8.5,6-13.1,3.3c-4.5-2.7-6-8.5-3.3-13.1c21.5-36.5,29.7-78.7,24.5-119.4
				c-5.1-39.8-23-78.4-53.6-109.1c-36.7-36.7-84.9-55.1-133-55.1c-48.2,0-96.3,18.3-133,55l0,0l0,0c-36.7,36.7-55.1,84.9-55.1,133
				s18.4,96.3,55.1,133c36.7,36.7,84.9,55.1,133,55.1c48.2,0,96.3-18.4,133-55.1c3.7-3.7,9.8-3.7,13.5,0c3.7,3.7,3.7,9.8,0,13.5
				c-40.5,40.4-93.5,60.7-146.5,60.7c-53,0-106.1-20.3-146.5-60.7C20.3,313.3,0,260.2,0,207.2S20.3,101.1,60.7,60.7l0,0
				C101.2,20.2,154.2,0,207.2,0c53,0,106.1,20.2,146.5,60.7c33.7,33.7,53.4,76.2,59,120.3C418.4,225.9,409.4,272.3,385.7,312.5z"/>
			<path class="st0" d="M207.2,98.8c5.3,0,9.6,4.3,9.6,9.6c0,5.3-4.3,9.6-9.6,9.6c-6.2,0-12.2,0.6-17.8,1.7c-5.9,1.2-11.6,3-17,5.3
				c-5.2,2.2-10.2,5-15.1,8.2l-0.5,0.3c-4.5,3-8.8,6.7-12.8,10.7c-8.1,8.1-14.7,17.8-19.2,28.3c-2.3,5.4-4,11.1-5.2,17
				c-1.1,5.6-1.7,11.6-1.7,17.8c0,5.3-4.3,9.6-9.6,9.6s-9.6-4.3-9.6-9.6c0-7.2,0.8-14.4,2.2-21.5c1.4-7.2,3.6-14.1,6.4-20.6
				c5.5-13,13.5-24.7,23.2-34.5c4.7-4.7,9.9-9,15.6-12.9l0.6-0.4c5.7-3.8,11.8-7.2,18.4-9.9c6.6-2.8,13.5-4.9,20.6-6.4
				C192.8,99.6,200,98.8,207.2,98.8z"/>
			<path class="st0" d="M340.2,353.7c-3.7-3.7-3.7-9.8,0-13.5c3.7-3.7,9.8-3.7,13.5,0l54.5,54.6c3.7,3.7,3.7,9.8,0,13.5
				c-3.7,3.7-9.8,3.7-13.5,0L340.2,353.7z"/>
			<path class="st0" d="M396.3,396.4L396.3,396.4c6.7-6.7,15.5-10,24.2-10c8.7,0,17.5,3.3,24.2,10l0,0l0,0l0,0l52.4,52.4l52.4,52.4
				l52.4,52.4h0c6.7,6.7,10,15.5,10,24.2c0,8.7-3.3,17.5-10,24.2l0,0l0,0l0,0h0c-6.7,6.7-15.5,10-24.2,10s-17.6-3.3-24.2-10h0
				l-52.4-52.4l-52.4-52.4l-52.4-52.4l0,0c-6.7-6.7-10-15.5-10-24.2C386.3,411.8,389.7,403,396.3,396.4L396.3,396.4L396.3,396.4z
				 M409.9,409.9L409.9,409.9L409.9,409.9c-2.9,2.9-4.4,6.8-4.4,10.7s1.5,7.8,4.4,10.7l0,0l52.4,52.4l52.4,52.4l52.4,52.4h0
				c2.9,2.9,6.8,4.4,10.7,4.4s7.8-1.5,10.7-4.4l0,0l0,0l0,0c2.9-2.9,4.4-6.8,4.4-10.7c0-3.9-1.5-7.8-4.4-10.7l0,0l-52.4-52.4
				l-52.4-52.4l-52.4-52.4v0l0,0c-2.9-2.9-6.8-4.4-10.7-4.4C416.7,405.5,412.8,407,409.9,409.9z"/>
		</g>
	</g>
</g>
</svg>
