<svg id="Capa_1" xmlns="http://www.w3.org/2000/svg" viewBox="0 0 612.1 612.1"><style>.st0{fill:#FFF}</style><path class="st0" d="M345.9 207.2c0-38.3-15.5-73-40.6-98-25.1-25.1-59.8-40.6-98-40.6-38.3 0-73 15.5-98.1 40.6-25.1 25.1-40.6 59.8-40.6 98.1s15.5 73 40.6 98c25.1 25.1 59.8 40.6 98.1 40.6s73-15.5 98-40.6l.5-.4c24.8-25.1 40.1-59.6 40.1-97.7zM318.8 95.7c28.6 28.6 46.2 68 46.2 111.6 0 43.3-17.5 82.5-45.7 111l-.5.6c-28.5 28.5-68 46.2-111.6 46.2-43.6 0-83-17.7-111.6-46.2-28.5-28.5-46.2-68-46.2-111.6 0-43.6 17.7-83 46.2-111.5h.1c28.5-28.5 68-46.2 111.5-46.2 43.6-.2 83.1 17.5 111.6 46.1z"/><path class="st0" d="M385.7 312.5c-2.7 4.5-8.5 6-13.1 3.3-4.5-2.7-6-8.5-3.3-13.1 21.5-36.5 29.7-78.7 24.5-119.4-5.1-39.8-23-78.4-53.6-109.1-36.7-36.7-84.9-55.1-133-55.1-48.2 0-96.3 18.3-133 55s-55.1 84.9-55.1 133 18.4 96.3 55.1 133 84.9 55.1 133 55.1c48.2 0 96.3-18.4 133-55.1 3.7-3.7 9.8-3.7 13.5 0 3.7 3.7 3.7 9.8 0 13.5-40.5 40.4-93.5 60.7-146.5 60.7S101.1 394 60.7 353.6C20.3 313.3 0 260.2 0 207.2S20.3 101.1 60.7 60.7C101.2 20.2 154.2 0 207.2 0s106.1 20.2 146.5 60.7c33.7 33.7 53.4 76.2 59 120.3 5.7 44.9-3.3 91.3-27 131.5z"/><path class="st0" d="M207.2 98.8c5.3 0 9.6 4.3 9.6 9.6s-4.3 9.6-9.6 9.6c-6.2 0-12.2.6-17.8 1.7-5.9 1.2-11.6 3-17 5.3-5.2 2.2-10.2 5-15.1 8.2l-.5.3c-4.5 3-8.8 6.7-12.8 10.7-8.1 8.1-14.7 17.8-19.2 28.3-2.3 5.4-4 11.1-5.2 17-1.1 5.6-1.7 11.6-1.7 17.8 0 5.3-4.3 9.6-9.6 9.6s-9.6-4.3-9.6-9.6c0-7.2.8-14.4 2.2-21.5 1.4-7.2 3.6-14.1 6.4-20.6 5.5-13 13.5-24.7 23.2-34.5 4.7-4.7 9.9-9 15.6-12.9l.6-.4c5.7-3.8 11.8-7.2 18.4-9.9 6.6-2.8 13.5-4.9 20.6-6.4 7.1-1.5 14.3-2.3 21.5-2.3zM340.2 353.7c-3.7-3.7-3.7-9.8 0-13.5 3.7-3.7 9.8-3.7 13.5 0l54.5 54.6c3.7 3.7 3.7 9.8 0 13.5-3.7 3.7-9.8 3.7-13.5 0l-54.5-54.6z"/><path class="st0" d="M396.3 396.4c6.7-6.7 15.5-10 24.2-10s17.5 3.3 24.2 10l52.4 52.4 52.4 52.4 52.4 52.4c6.7 6.7 10 15.5 10 24.2s-3.3 17.5-10 24.2c-6.7 6.7-15.5 10-24.2 10s-17.6-3.3-24.2-10l-52.4-52.4-52.4-52.4-52.4-52.4c-6.7-6.7-10-15.5-10-24.2 0-8.8 3.4-17.6 10-24.2zm13.6 13.5c-2.9 2.9-4.4 6.8-4.4 10.7s1.5 7.8 4.4 10.7l52.4 52.4 52.4 52.4 52.4 52.4c2.9 2.9 6.8 4.4 10.7 4.4s7.8-1.5 10.7-4.4c2.9-2.9 4.4-6.8 4.4-10.7 0-3.9-1.5-7.8-4.4-10.7l-52.4-52.4-52.4-52.4-52.4-52.4c-2.9-2.9-6.8-4.4-10.7-4.4-3.9 0-7.8 1.5-10.7 4.4z"/></svg>